# xmcd
#
# Track frame offsets:
#	150
#	15524
#	25230
#	37183
#	49405
#	64930
#	77953
#	89225
#	104843
#	121633
#	135887
#	150033
#
# Disc length: 2246 seconds
#
# Revision: 1
# Processed by: cddbd v1.5.2PL0 Copyright (c) Steve Scherf et al.
# Submitted via: EasyCDDAExtractor 12.0.7.1
#
DISCID=9908c40c
DTITLE=Amy Allison - Sheffield Streets
DYEAR=2009
DGENRE=
TTITLE0=Sheffield Streets
TTITLE1=Calla Lily
TTITLE2=The Needle Skips
TTITLE3=Anywhere You Are
TTITLE4=Monsters Of The Id (With Elvis Costello)
TTITLE5=Why Must It Be?
TTITLE6=Everybody Ought To Know (With Dave Alvin)
TTITLE7=I Wrote A Song About You
TTITLE8=Dream World
TTITLE9=Hate At First Sight
TTITLE10=Come, Sweet Evening
TTITLE11=Mardi Gras Moon
EXTD=
EXTT0=
EXTT1=
EXTT2=
EXTT3=
EXTT4=
EXTT5=
EXTT6=
EXTT7=
EXTT8=
EXTT9=
EXTT10=
EXTT11=
PLAYORDER=
